name Walk4.mot
datacolumns 19
datarows 10
range 2.40000000 2.44500000
endheader

                time	   L_ground_force_vx	   L_ground_force_vy	   L_ground_force_vz	   L_ground_force_px	   L_ground_force_py	   L_ground_force_pz	   R_ground_force_vx	   R_ground_force_vy	   R_ground_force_vz	   R_ground_force_px	   R_ground_force_py	   R_ground_force_pz	   L_ground_torque_x	   L_ground_torque_y	   L_ground_torque_z	   R_ground_torque_x	   R_ground_torque_y	   R_ground_torque_z	
          2.40000000	          0.00000000	          0.00000000	         -0.00000000	         -0.00000000	          0.00000000	         -0.00000000	          1.87799847	         13.32798629	          1.74865197	          0.15970865	          0.00000000	          0.03566729	          0.00000000	          0.00000000	          0.00000000	          0.00000000	          0.00081097	          0.00000000	
          2.40500000	          0.00000000	          0.00000000	         -0.00000000	         -0.00000000	          0.00000000	         -0.00000000	         -0.13556657	          5.56375374	          1.32263421	          0.12155602	          0.00000000	          0.02690457	          0.00000000	          0.00000000	          0.00000000	          0.00000000	          0.01442528	          0.00000000	
          2.41000000	          0.00000000	          0.00000000	         -0.00000000	         -0.00000000	          0.00000000	         -0.00000000	         -1.41610514	          0.14467617	          0.94483290	          0.08747586	          0.00000000	          0.01915738	          0.00000000	          0.00000000	          0.00000000	          0.00000000	          0.02201501	          0.00000000	
          2.41500000	          0.00000000	          0.00000000	         -0.00000000	         -0.00000000	          0.00000000	         -0.00000000	         -2.12529292	         -3.34191543	          0.62783138	          0.05870264	          0.00000000	          0.01267414	          0.00000000	          0.00000000	          0.00000000	          0.00000000	          0.02514104	          0.00000000	
          2.42000000	          0.00000000	          0.00000000	         -0.00000000	         -0.00000000	          0.00000000	         -0.00000000	         -2.41199634	         -5.31349398	          0.37489057	          0.03560826	          0.00000000	          0.00751419	          0.00000000	          0.00000000	          0.00000000	          0.00000000	          0.02515734	          0.00000000	
          2.42500000	          0.00000000	          0.00000000	         -0.00000000	         -0.00000000	          0.00000000	         -0.00000000	         -2.40509394	         -6.15759599	          0.18303522	          0.01798209	          0.00000000	          0.00361094	          0.00000000	          0.00000000	          0.00000000	          0.00000000	          0.02317816	          0.00000000	
          2.43000000	          0.00000000	          0.00000000	         -0.00000000	         -0.00000000	          0.00000000	         -0.00000000	         -2.21045371	         -6.21191086	          0.04552623	          0.00525661	          0.00000000	          0.00082227	          0.00000000	          0.00000000	          0.00000000	          0.00000000	          0.02007584	          0.00000000	
          2.43500000	         -0.00000000	          0.00000000	         -0.00000000	         -0.00000000	          0.00000000	         -0.00000000	         -1.91081455	         -5.75545490	         -0.04625619	         -0.00331973	          0.00000000	         -0.00103108	          0.00000000	          0.00000000	          0.00000000	          0.00000000	          0.01649862	          0.00000000	
          2.44000000	         -0.00000000	         -0.00000000	         -0.00000000	         -0.00000000	          0.00000000	         -0.00000000	         -1.56753943	         -5.00755164	         -0.10145618	         -0.00855702	          0.00000000	         -0.00213805	          0.00000000	          0.00000000	          0.00000000	          0.00000000	          0.01289978	          0.00000000	
          2.44500000	         -0.00000000	         -0.00000000	         -0.00000000	         -0.00000000	          0.00000000	         -0.00000000	         -1.22343033	         -4.13189898	         -0.12883091	         -0.01123883	          0.00000000	         -0.00267883	          0.00000000	          0.00000000	          0.00000000	          0.00000000	          0.00957169	          0.00000000	
